<svg aria-hidden="true" style="position: absolute; width: 0; height: 0; overflow: hidden;" version="1.1" xmlns="http://www.w3.org/2000/svg" xmlns:xlink="http://www.w3.org/1999/xlink">
<defs>
<symbol id="icon-back" viewBox="0 0 32 32">
<path d="M7.658 17.142l14.39 14.385c0.631 0.63 1.654 0.63 2.288 0 0.631-0.63 0.631-1.653 0-2.283l-13.249-13.244 13.247-13.244c0.631-0.63 0.631-1.653 0-2.284-0.631-0.63-1.656-0.63-2.288 0l-14.39 14.385c-0.622 0.623-0.622 1.662 0.002 2.284z"></path>
</symbol>
<symbol id="icon-next" viewBox="0 0 32 32">
<path d="M24.342 14.858l-14.39-14.385c-0.631-0.63-1.654-0.63-2.287 0-0.631 0.63-0.631 1.653 0 2.283l13.249 13.244-13.247 13.244c-0.631 0.63-0.631 1.653 0 2.284 0.631 0.63 1.656 0.63 2.287 0l14.39-14.385c0.622-0.623 0.622-1.662-0.002-2.284z"></path>
</symbol>
<symbol id="icon-star-regular" viewBox="0 0 36 32">
<path d="M33.006 10.719l-9.131-1.331-4.081-8.275c-0.731-1.475-2.85-1.494-3.587 0l-4.081 8.275-9.131 1.331c-1.637 0.238-2.294 2.256-1.106 3.412l6.606 6.438-1.563 9.094c-0.281 1.644 1.45 2.875 2.9 2.106l8.169-4.294 8.169 4.294c1.45 0.762 3.181-0.462 2.9-2.106l-1.563-9.094 6.606-6.438c1.188-1.156 0.531-3.175-1.106-3.412zM24.288 19.519l1.481 8.65-7.769-4.081-7.769 4.081 1.481-8.65-6.287-6.125 8.688-1.262 3.888-7.875 3.887 7.875 8.688 1.262-6.287 6.125z"></path>
</symbol>
<symbol id="icon-star-solid" viewBox="0 0 36 32">
<path d="M16.206 1.113l-4.081 8.275-9.131 1.331c-1.637 0.238-2.294 2.256-1.106 3.412l6.606 6.438-1.563 9.094c-0.281 1.644 1.45 2.875 2.9 2.106l8.169-4.294 8.169 4.294c1.45 0.762 3.181-0.462 2.9-2.106l-1.563-9.094 6.606-6.438c1.188-1.156 0.531-3.175-1.106-3.412l-9.131-1.331-4.081-8.275c-0.731-1.475-2.85-1.494-3.587 0z"></path>
</symbol>
</defs>
</svg>
